<svg viewBox="0 0 130 55" fill="none" height="55" width="130" xmlns="http://www.w3.org/2000/svg"><g class="img-logo"><g class="logo-text"><path d="M119.231 48.381c1.56 0 2.776-.176 3.434-.394v-6.245h-4.606v-5.36h11.517v15.74c-2.632.704-6.403 1.672-10.488 1.672-5.648 0-9.814-1.365-12.661-3.961-2.801-2.596-4.401-6.065-4.401-10.42.044-9.853 7.666-15.35 17.817-15.35 3.994 0 7.758 1.066 9.733 1.726l-1.447 5.16c-1.975-.747-4.956-1.345-8.352-1.345-5.832 0-10.366 2.992-10.366 9.456 0 6.16 4.079 9.321 9.82 9.321Z" fill="#fff"></path><path d="M119.231 48.381c1.56 0 2.776-.176 3.434-.394v-6.245h-4.606v-5.36h11.517v15.74c-2.632.704-6.403 1.672-10.488 1.672-5.648 0-9.814-1.365-12.661-3.961-2.801-2.596-4.401-6.065-4.401-10.42.044-9.853 7.666-15.35 17.817-15.35 3.994 0 7.758 1.066 9.733 1.726l-1.447 5.16c-1.975-.747-4.956-1.345-8.352-1.345-5.832 0-10.366 2.992-10.366 9.456 0 6.16 4.079 9.321 9.82 9.321Z" fill="#132D52"></path><path d="m90.309 24.287-9.67 20.87-9.593-20.87h-8.813V54.02h7.175V34.642l8.735 19.377h4.99l8.657-19.151v19.151h7.175V24.287H90.31Z" fill="#fff"></path><path d="m90.309 24.287-9.67 20.87-9.593-20.87h-8.813V54.02h7.175V34.642l8.735 19.377h4.99l8.657-19.151v19.151h7.175V24.287H90.31Z" fill="#132D52"></path><path d="M58.298 54.019h-6.56V24.287h6.56V54.02Z" fill="#fff"></path><path d="M58.298 54.019h-6.56V24.287h6.56V54.02Z" fill="#132D52"></path></g>
 <g class="logo-mark"><g class="birds"><path clip-rule="evenodd" d="M42.556 6.368 37.884 1.79l-1.888 1.85 6.56 6.428 6.559-6.428-1.888-1.85-4.671 4.578Zm13.118 1.448L52.871 5.03l-1.133 1.126 3.936 3.912 3.936-3.912-1.133-1.126-2.803 2.786ZM53.05 2.123 51.182.289l-.755.741 2.623 2.575 2.624-2.575-.755-.74-1.869 1.833Z" fill-rule="evenodd" fill="#F19107"></path><path clip-rule="evenodd" d="M42.556 17.024 35.08 9.635l-3.02 2.986 10.495 10.374L53.05 12.621l-3.02-2.986-7.474 7.389Z" fill-rule="evenodd" fill="#F19107"></path></g>
 <g class="brackets"><path d="M16.319 8.773H.575v15.513h4.52V13.228H16.32V8.773Z" fill="#fff"></path><path d="M16.319 8.773H.575v15.513h4.52V13.228H16.32V8.773Z" fill="#132D52"></path><path d="M.576 54.017h15.742v-4.454H5.097V38.505H.576v15.512Z" fill="#fff"></path><path d="M.576 54.017h15.742v-4.454H5.097V38.505H.576v15.512Z" fill="#132D52"></path><path d="M46.491 38.505v15.512H30.75v-4.454h11.222V38.505h4.52Z" fill="#fff"></path><path d="M46.491 38.505v15.512H30.75v-4.454h11.222V38.505h4.52Z" fill="#132D52"></path></g>
 </g>
 </g>
 </svg>
