<?xml version="1.0" encoding="utf-8"?>
<!-- Generator: Adobe Illustrator 27.6.1, SVG Export Plug-In . SVG Version: 6.00 Build 0)  -->
<svg version="1.1" id="Layer_1" xmlns="http://www.w3.org/2000/svg" xmlns:xlink="http://www.w3.org/1999/xlink" x="0px" y="0px"
	 viewBox="0 0 1643.5 360" style="enable-background:new 0 0 1643.5 360;" xml:space="preserve">
<style type="text/css">
	.st0{display:none;}
	.st1{display:inline;}
	.st2{clip-path:url(#SVGID_00000010283974393306601140000004864660785187123868_);}
	.st3{fill-rule:evenodd;clip-rule:evenodd;}
	.st4{fill-rule:evenodd;clip-rule:evenodd;fill:#000000;}
	.st5{fill:#000000;}
</style>
<g id="Layer_1_00000099621481688413302890000017844795198078722493_">
	<g class="st0">
		<g class="st1">
			<defs>
				<rect id="SVGID_1_" width="2233" height="360"/>
			</defs>
			<clipPath id="SVGID_00000158709013022524595770000003533316191082215068_">
				<use href="#SVGID_1_"  style="overflow:visible;"/>
			</clipPath>
			<g style="clip-path:url(#SVGID_00000158709013022524595770000003533316191082215068_);">
				<path class="st3" d="M1147.7,0h13.9v359.6h-13.9V0z"/>
				<path d="M91.7,135.7c0,19-9.1,28.6-23.2,28.6c-12.6,0-21.9-7-31.8-19L0,179.8c14.3,19.5,36.2,34.5,71.8,34.5
					c10.3,0.5,20.5-1.1,30.1-4.7c9.6-3.6,18.5-9,26-16c13.7-13.7,20.1-31.8,20.1-57.5V6.3H91.7V135.7z M160.8,210.7h57V6.3h-57
					V210.7z M290,6.3h-56.7v204.4h155.6v-49.6H290V6.3z M449,6.3h-56.7v204.4h155.6v-49.6h-99L449,6.3z M971.1,6.3v108.1L886.8,6.3
					H834v199.5l-85-201h-54.6l-86.1,203.9V6.3h-56.9v204.4H667l14.6-36.5h78.8l14.9,36.5H890V98.6l87,112.1h49.6V6.3H971.1z
					 M698.5,130.1l23.2-58l22.8,58H698.5z"/>
				<path d="M91.7,230.6h14.5l46.4,69.6l46.4-69.6h14.6v127.2h-14.5v-103l-46.4,68.1H152l-46.3-67.7v102.6h-14V230.6z"/>
				<path d="M250.6,230.6H265v127.2h-14.4V230.6z"/>
				<path d="M296.6,294.6v-0.3c-0.3-8.6,1.2-17.1,4.3-25.1c3.1-8,7.8-15.3,13.8-21.4c6-6.1,13.2-11,21.1-14.3s16.4-5,25-4.9
					c9.2-0.3,18.4,1.4,26.9,4.8c8.5,3.5,16.3,8.7,22.7,15.3l-9.9,10.6c-5.1-5.5-11.3-9.8-18.2-12.8c-6.9-3-14.3-4.6-21.8-4.6
					c-28.1,0-49.2,22.9-49.2,52.2v0.4c0,29.4,21.3,52.5,49.2,52.5c17.4,0,29-6.7,41.1-18.3l9.5,9.2c-6.4,7.2-14.2,12.9-23,16.8
					s-18.3,5.8-27.9,5.6c-8.5,0-17-1.6-24.9-4.9s-15-8.2-20.9-14.3c-6-6.1-10.6-13.4-13.7-21.3S296.3,303.1,296.6,294.6z"/>
				<path d="M436.3,230.6h14.4v56.5H524v-56.5h14.3v127.2H524v-57.2h-73.4v57.2h-14.4L436.3,230.6L436.3,230.6z"/>
				<path d="M621.4,229.7h13.5l58,128.1h-15.4l-14.9-33.6h-69.3l-15.1,33.6h-14.7L621.4,229.7z M656.9,311.3l-29-64.8l-29,64.8
					H656.9z"/>
				<path d="M717.9,230.6h91.9v13h-77.5v43.5h69.6v13.1h-69.6v44.5h78.5v13.1H718L717.9,230.6z"/>
				<path d="M839.6,230.6H854v113.9h71.6v13.3h-85.9L839.6,230.6L839.6,230.6z"/>
				<path d="M933.5,339.2l8.9-10.5c5.7,5.8,12.5,10.3,20,13.4s15.5,4.6,23.6,4.6c17.1,0,28.3-9.1,28.3-21.6v-0.3
					c0-11.6-6.3-18.6-33.1-24.2c-29-6.3-42.7-15.8-42.7-36.7v-0.4c0-20,17.4-34.8,41.8-34.8c16.3-0.5,32.2,5.1,44.7,15.6l-8.3,11.1
					c-10.1-8.8-23-13.7-36.4-13.7c-16.5,0-27,9.1-27,20.5v0.4c0,11.9,6.6,18.7,34.8,24.7s41.4,16.5,41.4,36v0.3
					c0,21.8-18.2,36-43.4,36C966.5,360,947.6,352.6,933.5,339.2L933.5,339.2z"/>
				<path class="st3" d="M1272,204.3h13V145h92.2v-10.6h-91.9V91.9h109.2V81.2H1272V204.3z M1438.3,204.3V81.2h-13v123.1
					L1438.3,204.3L1438.3,204.3z M1528.9,91.9v112.5h12.8V91.9h66.2V81.2h-145.3v10.6L1528.9,91.9z M1641.4,204.3v-99l133.4,102.3
					V81.2H1762v100.2L1629.1,77v127h12.3V204.3z M1811.9,204.3h122.4v-10.6H1825V145h92.2v-10.6h-92V91.9h109.2V81.2H1812
					L1811.9,204.3L1811.9,204.3L1811.9,204.3z M2084.5,172.1c0-22.9-34.4-30.2-62-34.8c-26.4-4.2-51.8-8.4-51.8-26.9
					c0-18.6,30.2-22.7,44.1-22.7c19.4-0.4,38.6,4.1,55.8,13.2V88.1c-11.2-7-33.1-10.8-53.6-10.8c-29,0-60.8,9.9-60.8,33.1
					c0,51.9,114.3,26,114.3,63.8c0,12.6-19.9,24.9-51,24.9c-21-0.2-41.7-5.7-60-16.1v13.6c12.6,7.9,35.7,12.8,59.5,12.8
					c32.7,0,65.3-9.9,65.3-37L2084.5,172.1z M2232.9,172.1c0-22.9-34.4-30.2-62-34.8c-26.4-4.2-51.8-8.4-51.8-26.9
					c0-18.6,30.2-22.7,44.1-22.7c19.5-0.5,38.8,3.9,56,13V88.1c-11.2-7-33.1-10.8-53.6-10.8c-29,0-60.9,9.9-60.9,33.1
					c0,51.9,114.3,26,114.3,63.8c0,12.6-19.8,24.9-50.9,24.9c-21.1-0.2-41.7-5.7-60-16.1v13.6c12.6,7.9,35.7,12.8,59.6,12.8
					c32.7,0,65.3-9.9,65.3-37v-0.3H2232.9z"/>
				<path d="M1389.1,56.8h-5.8V34.2h-44.6v22.6h-5.8V10.9h5.8v19.7h44.7V10.9h5.8L1389.1,56.8z"/>
				<path d="M1409.4,14.2v17h33.9v3.3h-33.9v19h40.6v3.3h-46.4V10.9h46.4v3.2h-40.6V14.2z"/>
				<path d="M1301.2,56.8h-5.8V14.1H1272v-3.2h52.9V14h-23.7L1301.2,56.8L1301.2,56.8z"/>
				<path d="M1336.2,225l-81.6,126.8h15.3l25.8-40.1h81.2l25.8,40.1h15.2L1336.2,225z M1302.2,301.6l33.9-52.7l34,52.7H1302.2z"/>
				<path d="M1518.1,228.7h-76v123.1h12.8v-58h63.2c22.1,0,47-7.7,47-32.4S1540.2,228.7,1518.1,228.7z M1515.9,283h-61.1v-43.6h61.1
					c25.6,0,34.8,7.2,34.8,21.8C1550.7,275.7,1541.5,283,1515.9,283z"/>
				<path d="M1672,228.7h-76.1v123.1h12.8v-58h63.3c22,0,47-7.7,47-32.4C1719,236.7,1694.1,228.7,1672,228.7z M1669.8,283h-61.1
					v-43.6h61.1c25.6,0,35.1,7.2,35.1,21.8C1704.9,275.7,1695.4,283,1669.8,283z"/>
			</g>
		</g>
	</g>
</g>
<g id="Layer_2_00000092443762833487841510000000770484152574096552_">
	<path id="Rectángulo_2_00000165209683100911458240000006298821385932743098_" class="st4" d="M920.5,1.8h7.6v356.8h-7.6V1.8z"/>
	<g id="The_Fitness_App_Outlined_00000147211589818934145360000016125473256189003684_">
		<path class="st5" d="M1063.5,121.9V48.3h-41.6v-3.5h87.6v3.5H1068V122L1063.5,121.9L1063.5,121.9z"/>
		<path class="st5" d="M1213.2,121.9v-40H1130V122h-4.7V44.8h4.7v32.9h83.2V44.8h4.7v77.1C1217.9,121.9,1213.2,121.9,1213.2,121.9z"
			/>
		<path class="st5" d="M1246.7,121.9V44.8h76.7v3.3h-71.9v31.4h60.5v3.6h-60.5v35.2h71.9v3.6H1246.7z"/>
		<path class="st5" d="M1039.7,180.9v39h-4.8v-77.1h76.7v3.6h-71.9v31h60.5v3.6h-60.5V180.9z"/>
		<path class="st5" d="M1131,219.9v-77.1h4.7v77.1H1131z"/>
		<path class="st5" d="M1193,219.9v-73.7h-41.6v-3.5h87.6v3.5h-41.5v73.7H1193z"/>
		<path class="st5" d="M1259.5,151.2v68.7h-4.7v-78.5l86.4,70.5v-69.1h4.7v78.5L1259.5,151.2z"/>
		<path class="st5" d="M1374.7,219.9v-77.1h76.7v3.3h-71.9v31.4h60.5v3.6h-60.5v35.2h71.9v3.6H1374.7z"/>
		<path class="st5" d="M1540.8,149.8c-7.9-3.7-23.9-5.1-36.4-5.1c-11.2,0-33.5,0.8-33.5,15.6c0,27.1,73.8,5.3,73.8,39.1
			c0,18.4-21.6,21.8-39.4,21.8c-13.3,0-29.9-1.9-41.3-6.1l0.1-3.7c12,4.7,29.3,6.2,41.3,6.2c15.3,0,35.1-2.5,35.1-17.8
			c0-29.9-73.8-7.2-73.8-39c0-18,23.5-19.5,37.5-19.5c15.6,0,29.2,1.9,36.8,5.3L1540.8,149.8z"/>
		<path class="st5" d="M1633.3,149.8c-7.9-3.7-23.9-5.1-36.4-5.1c-11.2,0-33.5,0.8-33.5,15.6c0,27.1,73.8,5.3,73.8,39.1
			c0,18.4-21.6,21.8-39.4,21.8c-13.3,0-29.9-1.9-41.3-6.1l0.1-3.7c12,4.7,29.3,6.2,41.3,6.2c15.3,0,35.1-2.5,35.1-17.8
			c0-29.9-73.8-7.2-73.8-39c0-18,23.5-19.5,37.5-19.5c15.6,0,29.2,1.9,36.8,5.3L1633.3,149.8z"/>
		<path class="st5" d="M1100.8,291.6h-58.1l-17.1,26.1h-5.3l51.4-78.5l51.6,78.5h-5.4L1100.8,291.6z M1045.3,287.8h52.9l-26.4-40.4
			L1045.3,287.8z"/>
		<path class="st5" d="M1142.3,282.9v34.8h-4.7v-77.1h49.3c14,0,27.2,5,27.2,21c0,15.9-13.3,21.3-27.2,21.3L1142.3,282.9
			L1142.3,282.9z M1142.3,244.2v35.1h44.6c12.3,0,22.1-4.6,22.1-17.7s-9.8-17.4-22.1-17.4L1142.3,244.2L1142.3,244.2z"/>
		<path class="st5" d="M1237.4,282.9v34.8h-4.7v-77.1h49.3c14,0,27.2,5,27.2,21c0,15.9-13.3,21.3-27.2,21.3L1237.4,282.9
			L1237.4,282.9z M1237.4,244.2v35.1h44.6c12.3,0,22.1-4.6,22.1-17.7s-9.8-17.4-22.1-17.4L1237.4,244.2L1237.4,244.2z"/>
	</g>
	<g id="Michaels">
		<path class="st5" d="M192.6,317.5l-19.5-51.1l-30.6,52.2l-30.6-52.2l-19.5,51.1h-3.7l22.6-59l31.2,53.3l31.2-53.3l22.6,59H192.6z"
			/>
		<path class="st5" d="M231,317.5v-57.9h3.5v57.9H231z"/>
		<path class="st5" d="M341.5,312.7c-7.8,3.8-17.9,5.8-29.4,5.8c-22.3,0-40.2-10.5-40.2-30s17.9-30,40.2-30
			c11.6,0,21.6,1.9,29.4,5.7v2.9c-6.9-4-17.5-6.1-29.4-6.1c-20.1,0-36.5,9.2-36.5,27.5c0,18.2,16.4,27.3,36.5,27.3
			c10.8,0,23-2.2,29.4-5.9V312.7z"/>
		<path class="st5" d="M444.3,317.5v-30.1h-62.4v30.1h-3.5v-57.9h3.5v24.7h62.4v-24.7h3.5v57.9H444.3z"/>
		<path class="st5" d="M540.3,297.9h-43.5l-12.9,19.6H480l38.6-58.9l38.7,58.9h-4L540.3,297.9z M498.6,295h39.7l-19.8-30.3
			L498.6,295z"/>
		<path class="st5" d="M589.4,317.5v-57.9h57.5v2.5H593v23.5h45.4v2.7H593v26.4h53.9v2.7L589.4,317.5L589.4,317.5z"/>
		<path class="st5" d="M684.4,317.5v-57.9h3.5v55.1h49.8v2.8H684.4z"/>
		<path class="st5" d="M823,264.9c-5.9-2.8-17.9-3.8-27.3-3.8c-8.4,0-25.1,0.6-25.1,11.7c0,20.3,55.4,3.9,55.4,29.3
			c0,13.8-16.2,16.4-29.6,16.4c-10,0-22.4-1.5-31-4.6l0.1-2.8c9,3.5,22,4.7,31,4.7c11.5,0,26.3-1.9,26.3-13.4
			c0-22.4-55.4-5.4-55.4-29.2c0-13.5,17.6-14.6,28.1-14.6c11.7,0,21.9,1.5,27.6,3.9L823,264.9z"/>
	</g>
	<g id="Jillian">
		<path class="st5" d="M2,278.1c13.2-6.3,23.6-18.1,28.3-26.9c6-11.5,8-34.6,8-44.2c0-54.9-0.3-133.7-0.3-162.2h20.3
			c0,52.7,0,99.9,0,152.6c0,22-4.9,38.2-12.9,51.6C36,264.6,14.9,277.5,2,280.3V278.1z"/>
		<path class="st5" d="M107.7,229.5c0-16.2,0.8-156.2,0.3-184.7h20.3c0,52.7,0.3,132.3,0.3,184.7H107.7z"/>
		<path class="st5" d="M175.2,229.5c0-16.2,0.5-156.2,0-184.7c7.1,0,20.9,0,20.9,0l0.3,177.1c0,0,75.5,0.8,88.9-1.6l-3.3,9.3H175.2
			V229.5z"/>
		<path class="st5" d="M307.2,229.5c0-16.2,0.5-156.2,0-184.7c7.1,0,20.9,0,20.9,0l0.3,177.1c0,0,75.5,0.8,88.9-1.6l-3.3,9.3H307.2
			V229.5z"/>
		<path class="st5" d="M453,229.5c0-16.2,0.8-156.2,0.3-184.7h20.3c0,52.7,0.3,132.3,0.3,184.7H453z"/>
		<path class="st5" d="M634.4,229.5c-6.3-17.8-15.9-42.8-24.7-64.8h-73.6l-26.9,64.8c-7.1,0-8,0-8,0L578.7,42h2.5
			c0,0,3.8,12.1,6.9,19.5c23.9,59.6,58.7,141.9,70,168H634.4z M606.4,156.8c-14.5-36.2-33.2-82.4-33.2-82.4v-3.3l-34,85.6h67.2
			V156.8z"/>
		<path class="st5" d="M818.4,197.1c0-16.2,0-123.8-0.5-152.3h8.8c0,52.7-1.1,135.3,0.3,188C807.1,211.1,689.6,69.2,689.6,69.2
			l1.9,6c0,53,0,100.7,0,154.3h-8.8c0-14.8,0.3-130.9,0-170.7l-1.6-14h11.8c11.3,15.4,123.5,147.7,123.5,147.7L818.4,197.1z"/>
	</g>
</g>
</svg>
